<mxfile host="app.diagrams.net" modified="2022-02-04T04:57:52.985Z" agent="5.0 (Macintosh; Intel Mac OS X 10_15_7) AppleWebKit/537.36 (KHTML, like Gecko) Chrome/97.0.4692.99 Safari/537.36" etag="omgtwgDOzt0n9VCCo0Zf" version="16.5.3" type="github">
  <diagram id="RVUHskUjCJ2aI2nNrcO4" name="Page-1">
    <mxGraphModel dx="932" dy="793" grid="1" gridSize="10" guides="1" tooltips="1" connect="1" arrows="1" fold="1" page="1" pageScale="1" pageWidth="850" pageHeight="1100" math="0" shadow="0">
      <root>
        <mxCell id="0" />
        <mxCell id="1" parent="0" />
        <mxCell id="l6OhJoyG1KW1TdnT1ii7-1" value="flow did not trigger" style="rounded=0;whiteSpace=wrap;html=1;" parent="1" vertex="1">
          <mxGeometry x="290" y="70" width="120" height="60" as="geometry" />
        </mxCell>
        <mxCell id="-H8EjJh8zgBhOkhPmlSs-1" value="DB" style="shape=cylinder3;whiteSpace=wrap;html=1;boundedLbl=1;backgroundOutline=1;size=15;" vertex="1" parent="1">
          <mxGeometry x="170" y="240" width="60" height="80" as="geometry" />
        </mxCell>
        <mxCell id="-H8EjJh8zgBhOkhPmlSs-2" value="" style="endArrow=classic;startArrow=classic;html=1;rounded=0;entryX=0.5;entryY=1;entryDx=0;entryDy=0;exitX=0.5;exitY=0;exitDx=0;exitDy=0;exitPerimeter=0;" edge="1" parent="1" source="-H8EjJh8zgBhOkhPmlSs-1" target="l6OhJoyG1KW1TdnT1ii7-1">
          <mxGeometry width="50" height="50" relative="1" as="geometry">
            <mxPoint x="420" y="430" as="sourcePoint" />
            <mxPoint x="470" y="380" as="targetPoint" />
            <Array as="points">
              <mxPoint x="280" y="210" />
            </Array>
          </mxGeometry>
        </mxCell>
        <mxCell id="-H8EjJh8zgBhOkhPmlSs-3" value="AWS" style="ellipse;shape=cloud;whiteSpace=wrap;html=1;" vertex="1" parent="1">
          <mxGeometry x="470" y="110" width="120" height="80" as="geometry" />
        </mxCell>
        <mxCell id="-H8EjJh8zgBhOkhPmlSs-4" value="" style="endArrow=classic;html=1;rounded=0;" edge="1" parent="1" target="-H8EjJh8zgBhOkhPmlSs-3">
          <mxGeometry relative="1" as="geometry">
            <mxPoint x="210" y="240" as="sourcePoint" />
            <mxPoint x="500" y="410" as="targetPoint" />
          </mxGeometry>
        </mxCell>
        <mxCell id="-H8EjJh8zgBhOkhPmlSs-5" value="" style="shape=message;html=1;outlineConnect=0;" vertex="1" parent="-H8EjJh8zgBhOkhPmlSs-4">
          <mxGeometry width="20" height="14" relative="1" as="geometry">
            <mxPoint x="-10" y="-7" as="offset" />
          </mxGeometry>
        </mxCell>
        <mxCell id="-H8EjJh8zgBhOkhPmlSs-6" value="&lt;h1&gt;What is this&lt;/h1&gt;&lt;div&gt;this is a system&lt;/div&gt;" style="text;html=1;strokeColor=none;fillColor=none;spacing=5;spacingTop=-20;whiteSpace=wrap;overflow=hidden;rounded=0;" vertex="1" parent="1">
          <mxGeometry x="60" y="40" width="190" height="120" as="geometry" />
        </mxCell>
      </root>
    </mxGraphModel>
  </diagram>
</mxfile>
